<svg width="254" height="74" viewBox="0 0 254 74" fill="none" xmlns="http://www.w3.org/2000/svg">
<path d="M26.3881 51.1884H18.4069L21.7144 35.3662L13.194 51.1884H8.3047L6.6869 34.8169L3.2356 51.1884H0L4.85339 27.9313H14.0209L15.1354 41.0432L22.038 27.9313H31.2774L26.3881 51.1884Z" fill="#18162D"/>
<path d="M29.6147 51.1884L34.4681 27.9313H44.1389C45.6249 27.9313 46.9191 28.09 48.0216 28.4074C49.1481 28.7004 50.0708 29.201 50.7899 29.909C51.5329 30.6171 52.0841 31.545 52.4436 32.6926C52.8271 33.8402 53.0188 35.2442 53.0188 36.9045C53.0188 38.6869 52.7911 40.4328 52.3358 42.1419C51.9043 43.8511 51.1733 45.3772 50.1427 46.7201C49.1121 48.063 47.758 49.1496 46.0803 49.9798C44.4265 50.7855 42.3773 51.1884 39.9326 51.1884H29.6147ZM39.4653 48.6246C40.2562 48.6246 40.9513 48.295 41.5504 47.6358C42.1736 46.9521 42.7009 46.0975 43.1323 45.072C43.5877 44.022 43.9592 42.8744 44.2468 41.6292C44.5583 40.3595 44.798 39.1387 44.9658 37.9666C45.1575 36.7946 45.2894 35.7447 45.3613 34.8169C45.4571 33.889 45.5051 33.2298 45.5051 32.8391C45.5051 32.0822 45.3493 31.4962 45.0377 31.0811C44.7501 30.6416 44.2348 30.4218 43.4918 30.4218H41.7661L37.9194 48.6246H39.4653Z" fill="#18162D"/>
<path d="M72.3001 51.1884H63.8876L63.3843 45.365H56.7333L54.1808 51.1884H50.6935L61.2991 27.9313H69.8195L72.3001 51.1884ZM57.9197 42.6913H63.1326L62.3057 32.7292L57.9197 42.6913Z" fill="#18162D"/>
<path d="M112.546 35.122C112.619 34.7658 112.655 34.2791 112.655 33.6617C112.655 33.3056 112.631 32.9613 112.582 32.6289C112.533 32.2727 112.448 31.9641 112.326 31.7029C112.204 31.418 112.021 31.2043 111.777 31.0618C111.533 30.8956 111.216 30.8125 110.826 30.8125C110.387 30.8125 109.984 30.9075 109.619 31.0974C109.253 31.2874 108.923 31.5367 108.631 31.8453C108.362 32.1303 108.143 32.4746 107.972 32.8782C107.826 33.2581 107.753 33.6617 107.753 34.0891C107.753 34.7065 107.911 35.1814 108.228 35.5138C108.57 35.8462 109.009 36.1192 109.545 36.3329C110.082 36.5466 110.692 36.7247 111.375 36.8672C112.058 37.0096 112.765 37.1758 113.497 37.3658C114.107 37.532 114.717 37.7457 115.326 38.0069C115.936 38.2681 116.473 38.6242 116.936 39.0754C117.424 39.5027 117.814 40.0726 118.107 40.7849C118.4 41.4735 118.546 42.3401 118.546 43.3849C118.546 44.8807 118.241 46.1392 117.632 47.1602C117.022 48.1811 116.18 49.0122 115.107 49.6533C114.034 50.2943 112.753 50.7574 111.265 51.0423C109.802 51.3272 108.204 51.4697 106.472 51.4697C104.716 51.4697 103.276 51.3628 102.154 51.1491C101.057 50.9117 100.191 50.6624 99.5566 50.4012C98.8005 50.0925 98.2394 49.7364 97.8735 49.3327L99.1176 44.4533H105.557C105.533 44.667 105.508 44.9638 105.484 45.3437C105.46 45.6999 105.447 45.9848 105.447 46.1985C105.447 46.4834 105.484 46.7802 105.557 47.0889C105.63 47.3976 105.74 47.6825 105.886 47.9437C106.057 48.2049 106.289 48.4186 106.582 48.5848C106.874 48.751 107.24 48.8341 107.679 48.8341C108.167 48.8341 108.594 48.7272 108.96 48.5136C109.35 48.2999 109.667 48.0387 109.911 47.73C110.18 47.3976 110.375 47.0414 110.497 46.6615C110.643 46.2579 110.716 45.8661 110.716 45.4862C110.716 44.9638 110.582 44.5246 110.314 44.1684C110.07 43.8123 109.728 43.5155 109.289 43.278C108.85 43.0168 108.338 42.8031 107.753 42.6369C107.191 42.447 106.606 42.257 105.996 42.0671C105.411 41.9009 104.789 41.6991 104.13 41.4616C103.496 41.2242 102.911 40.8918 102.374 40.4644C101.837 40.037 101.386 39.5027 101.02 38.8617C100.679 38.1968 100.508 37.3539 100.508 36.3329C100.508 34.8133 100.898 33.543 101.679 32.522C102.484 31.4773 103.484 30.6344 104.679 29.9933C105.899 29.3522 107.228 28.9011 108.667 28.6399C110.106 28.355 111.472 28.2125 112.765 28.2125C114.473 28.2125 115.936 28.4143 117.156 28.818C118.4 29.1979 119.339 29.649 119.973 30.1714L118.619 35.122H112.546Z" fill="#18162D"/>
<path d="M139.179 51.1847H131.276L133.471 41.1055H128.971L126.776 51.1847H118.872L123.812 28.5687H131.752L129.593 38.3987H134.057L136.216 28.5687H144.192L139.179 51.1847Z" fill="#18162D"/>
<path d="M150.413 51.1847H142.509L147.449 28.5687H155.389L150.413 51.1847Z" fill="#18162D"/>
<path d="M165.457 41.426C166.189 41.426 166.798 41.1292 167.286 40.5356C167.799 39.942 168.213 39.2178 168.53 38.363C168.872 37.5083 169.116 36.6179 169.262 35.6919C169.408 34.7658 169.482 33.9585 169.482 33.27C169.482 32.6289 169.372 32.0947 169.152 31.6673C168.933 31.2161 168.457 30.9906 167.725 30.9906H166.079L163.774 41.426H165.457ZM163.262 43.7054L161.615 51.1847H153.712L158.651 28.5687H167.103C168.494 28.5687 169.762 28.6399 170.909 28.7824C172.055 28.9248 173.043 29.2098 173.872 29.6372C174.702 30.0645 175.348 30.6819 175.812 31.4892C176.275 32.2727 176.507 33.3293 176.507 34.659C176.507 35.8937 176.299 37.069 175.885 38.185C175.494 39.2772 174.848 40.2388 173.945 41.0698C173.067 41.8771 171.921 42.5182 170.506 42.9931C169.091 43.468 167.372 43.7054 165.347 43.7054H163.262Z" fill="#18162D"/>
<path d="M186.664 41.426C187.396 41.426 188.006 41.1292 188.494 40.5356C189.006 39.942 189.42 39.2178 189.738 38.363C190.079 37.5083 190.323 36.6179 190.469 35.6919C190.616 34.7658 190.689 33.9585 190.689 33.27C190.689 32.6289 190.579 32.0947 190.36 31.6673C190.14 31.2161 189.664 30.9906 188.933 30.9906H187.286L184.981 41.426H186.664ZM184.469 43.7054L182.822 51.1847H174.919L179.859 28.5687H188.311C189.701 28.5687 190.969 28.6399 192.116 28.7824C193.262 28.9248 194.25 29.2098 195.08 29.6372C195.909 30.0645 196.555 30.6819 197.019 31.4892C197.482 32.2727 197.714 33.3293 197.714 34.659C197.714 35.8937 197.507 37.069 197.092 38.185C196.702 39.2772 196.055 40.2388 195.153 41.0698C194.275 41.8771 193.128 42.5182 191.713 42.9931C190.299 43.468 188.579 43.7054 186.554 43.7054H184.469Z" fill="#18162D"/>
<path d="M204.03 51.1847H196.126L201.066 28.5687H209.006L204.03 51.1847Z" fill="#18162D"/>
<path d="M226.831 51.1847H218.269L214.208 34.8371L210.622 51.1847H207.329L212.268 28.5687H221.013L224.855 45.13L228.477 28.5687H231.843L226.831 51.1847Z" fill="#18162D"/>
<path d="M243.133 40.8561H252.609L250.487 51.1847H246.17L245.475 48.9053H245.328C244.694 49.6176 243.938 50.2231 243.06 50.7217C242.206 51.2204 241.084 51.4697 239.694 51.4697C238.62 51.4697 237.584 51.3035 236.584 50.971C235.608 50.6149 234.73 50.0688 233.949 49.3327C233.193 48.5729 232.583 47.5875 232.12 46.3766C231.656 45.1657 231.425 43.7054 231.425 41.9959C231.425 40.1438 231.717 38.3868 232.303 36.7247C232.888 35.0626 233.766 33.6024 234.937 32.344C236.108 31.0618 237.571 30.0527 239.328 29.3166C241.084 28.5806 243.133 28.2125 245.475 28.2125C247.28 28.2125 248.853 28.4143 250.195 28.818C251.536 29.2216 252.805 29.6728 254 30.1714L252.609 37.0809H246.426C246.45 36.8197 246.487 36.511 246.536 36.1549C246.585 35.7987 246.621 35.4307 246.646 35.0508C246.67 34.6471 246.694 34.2553 246.719 33.8754C246.743 33.4955 246.755 33.1631 246.755 32.8782C246.755 32.6882 246.743 32.4746 246.719 32.2371C246.694 31.9759 246.633 31.7266 246.536 31.4892C246.438 31.2517 246.292 31.0618 246.097 30.9193C245.902 30.7531 245.621 30.67 245.255 30.67C244.621 30.67 244.036 30.9312 243.499 31.4536C242.987 31.9522 242.523 32.6289 242.108 33.4837C241.694 34.3147 241.328 35.2645 241.011 36.3329C240.718 37.4014 240.462 38.4936 240.242 39.6096C240.047 40.7018 239.889 41.7822 239.767 42.8506C239.669 43.8954 239.62 44.8095 239.62 45.5931C239.62 45.8305 239.633 46.1273 239.657 46.4834C239.681 46.8396 239.755 47.1958 239.877 47.5519C240.023 47.8843 240.218 48.1811 240.462 48.4423C240.73 48.6798 241.108 48.7985 241.596 48.7985C242.401 48.7985 243.182 48.3711 243.938 47.5163C244.694 46.6615 245.267 45.2369 245.658 43.2424H242.584L243.133 40.8561Z" fill="#18162D"/>
<path d="M86.905 39.2128C87.119 55.2626 74.1595 62.749 67.9205 64.486C76.7443 62.0294 90.1137 53.8035 90.1137 39.2128C90.1137 33.2202 89.0441 24.7642 79.4182 17.3268C71.2409 11.0087 59.7281 9.70473 53.889 9.51472C53.797 9.51173 53.7107 9.54366 53.6422 9.60337L44.0575 17.9598C43.944 18.0587 44.0476 18.2406 44.1944 18.2009C50.3775 16.5292 56.0906 16.2928 62.3053 16.5451C68.7227 16.8057 86.662 20.9744 86.905 39.2128Z" fill="#18162D"/>
<path d="M91.0579 39.9787C90.7854 61.584 107.298 71.6618 115.247 74C104.004 70.6931 86.9696 59.6199 86.9696 39.9787C86.9696 31.9118 88.3324 20.5289 100.597 10.517C111.025 2.00475 125.711 0.253689 133.145 0.000228552C133.25 -0.00334701 133.348 0.0351521 133.426 0.10718L145.579 11.3013C145.741 11.4507 145.593 11.7262 145.383 11.6666C137.542 9.44082 130.289 9.12652 122.402 9.46482C114.225 9.81555 91.3677 15.4273 91.0579 39.9787Z" fill="#3579F4"/>
</svg>
